# xmcd CD database file
#
# Track frame offsets:
#	150
#	960
#	15710
#	21228
#	39500
#	44333
#	61480
#	70663
#	80843
#	85855
#	102338
#	108415
#	121210
#	133408
#	160155
#	166083
#	180985
#	191093
#	201790
#
# Disc length: 2924 seconds
#
# Revision: 2
# Processed by: cddbd v1.5.1PL2 Copyright (c) Steve Scherf et al.
# Submitted via: CDex 1.51
#
DISCID=f50b6a13
DTITLE=Musclehead - Atomic Bass
DYEAR=1993
DGENRE=Bass
TTITLE0=Atomic Warning
TTITLE1=Get Going
TTITLE2=Bass Suite
TTITLE3=Bass Is The future
TTITLE4=A Minute Of Quad
TTITLE5=Don't Hold Back
TTITLE6=Bass Suite 2
TTITLE7=Just A Freestyle
TTITLE8=SSAB(Woofer Test)
TTITLE9=To The Bottom(Head Remix)
TTITLE10=How Do You Feel About Drop
TTITLE11=Hillbilly Bass
TTITLE12=Can You Feel It
TTITLE13=Bassin the Techno
TTITLE14=Musclehead Groove
TTITLE15=Big Tittie Bass
TTITLE16=Shankin' The Cabinets
TTITLE17=Musclehead's theme
TTITLE18=Bass For Always
EXTD=YEAR: 1993
EXTT0=
EXTT1=
EXTT2=
EXTT3=
EXTT4=
EXTT5=
EXTT6=
EXTT7=
EXTT8=
EXTT9=
EXTT10=
EXTT11=
EXTT12=
EXTT13=
EXTT14=
EXTT15=
EXTT16=
EXTT17=
EXTT18=
PLAYORDER=
